<?xml version="1.0" encoding="utf-8" ?>
<svg baseProfile="full" height="400px" version="1.1" viewBox="0 0 400 400" width="400px" xmlns="http://www.w3.org/2000/svg" xmlns:ev="http://www.w3.org/2001/xml-events" xmlns:xlink="http://www.w3.org/1999/xlink"><defs /><g id="brain"><path d="M 200 80 C 280 80, 320 120, 320 200 C 320 280, 280 320, 200 320 C 120 320, 80 280, 80 200 C 80 120, 120 80, 200 80" fill="none" stroke="#2a2a2a" stroke-width="3" /><path d="M 140 120 Q 160 100, 180 120 T 220 120 T 260 120" fill="none" stroke="#0a34bd" stroke-linecap="round" stroke-width="8" /><path d="M 120 160 Q 150 140, 180 160 T 240 160 T 280 160" fill="none" stroke="#6b7b3a" stroke-linecap="round" stroke-width="8" /><path d="M 110 200 Q 140 180, 170 200 T 230 200 T 290 200" fill="none" stroke="#0a34bd" stroke-linecap="round" stroke-width="8" /><path d="M 120 240 Q 150 220, 180 240 T 240 240 T 280 240" fill="none" stroke="#6b7b3a" stroke-linecap="round" stroke-width="8" /><path d="M 140 280 Q 170 260, 200 280 T 260 280" fill="none" stroke="#0a34bd" stroke-linecap="round" stroke-width="8" /><path d="M 130 140 Q 145 130, 160 140" fill="none" stroke="#6b7b3a" stroke-linecap="round" stroke-width="5" /><path d="M 240 180 Q 255 170, 270 180" fill="none" stroke="#0a34bd" stroke-linecap="round" stroke-width="5" /><path d="M 130 220 Q 145 210, 160 220" fill="none" stroke="#0a34bd" stroke-linecap="round" stroke-width="5" /><path d="M 240 260 Q 255 250, 270 260" fill="none" stroke="#6b7b3a" stroke-linecap="round" stroke-width="5" /></g></svg>